<?xml version="1.0" encoding="utf-8"?>
<!-- Generator: Adobe Illustrator 16.0.0, SVG Export Plug-In . SVG Version: 6.00 Build 0)  -->
<!DOCTYPE svg PUBLIC "-//W3C//DTD SVG 1.1//EN" "http://www.w3.org/Graphics/SVG/1.1/DTD/svg11.dtd">
<svg version="1.1" id="Layer_1" xmlns="http://www.w3.org/2000/svg" xmlns:xlink="http://www.w3.org/1999/xlink" x="0px" y="0px"
	 width="357px" height="91px" viewBox="0 0 357 91" enable-background="new 0 0 357 91" xml:space="preserve">
<g>
	<g id="XMLID_1_">
		<g>
			<path fill="#FFFFFF" d="M342.55,62.12c2.682,3.149,1.73,8.899-2.068,10.81c-4.73,2.37-10.62,1.41-14.722-1.8
				c0.59-0.8,1.19-1.59,1.8-2.38c2.921,2.67,7.302,3.77,11.012,2.15c3.14-1.262,3.659-6.631,0.35-7.971
				c-3.57-1.25-7.95-0.721-10.85-3.529c-2.802-3.182-1.841-9.041,2.08-10.91c4.188-2.03,9.51-1.2,12.979,1.898
				c-2.34,3.262-5.16-1.1-8.149-0.479c-3.979-0.7-7.289,4.09-4.891,7.398C333.57,60.47,339.26,58.55,342.55,62.12z"/>
			<path fill="#FFFFFF" d="M317.89,60.46c4.722,2.69,4.892,10.7-0.37,12.83c-4.538,1.44-9.42,0.39-14.1,0.86
				c-0.41-8.82-0.05-17.66-0.18-26.48c4.608,0.25,9.438-0.729,13.898,0.721C322.1,50.38,322.22,57.689,317.89,60.46z M315.45,71.109
				c4.1-1.09,4.17-7.801,0.068-8.93c-3.068-0.631-6.25-0.261-9.358-0.359c-0.04,3.21-0.04,6.42-0.04,9.63
				C309.22,71.391,312.39,71.77,315.45,71.109z M315.52,58.811c3.771-1.199,3.45-7.569-0.488-8.311c-2.9-0.41-5.96-0.57-8.852-0.04
				c-0.16,2.94-0.05,5.89-0.028,8.83C309.26,59.18,312.48,59.63,315.52,58.811z"/>
			<path fill="#FFFFFF" d="M298.939,74.34c-3.91,0.561-4.01-3.609-5.039-6.27c-3.871-0.04-7.75-0.131-11.621,0.1
				c-1.029,2.561-1.09,7.04-5.079,6.021c3.1-8.922,6.51-17.74,9.75-26.621c0.64,0.07,1.938,0.211,2.59,0.279
				C292.439,56.76,296.27,65.359,298.939,74.34z M283.279,65.51c3.25,0.021,6.5,0.03,9.75,0.01
				c-1.609-4.42-3.129-8.869-4.721-13.289C286.25,56.5,285,61.1,283.279,65.51z"/>
			<path fill="#FFFFFF" d="M275.67,71.46c0,0.64,0.01,1.931,0.01,2.58c-5.42,0.01-10.85-0.07-16.27,0.06
				c-0.25-8.8-0.01-17.59-0.13-26.39c0.729-0.03,2.17-0.08,2.89-0.101c0.04,7.949,0.021,15.899,0.01,23.851
				C266.68,71.47,271.17,71.47,275.67,71.46z"/>
			<path fill="#EB6B6C" d="M252.721,81.53H225.96c1.04-1.2,1.931-2.99,3.851-2.49c7.039,0.53,14.109-0.08,21.149,0.3
				C251.4,79.891,252.279,80.98,252.721,81.53z"/>
			<path fill="#FFFFFF" d="M249.061,78.53c-6.471,0-12.949-0.011-19.42,0c0.471-10.24,1.021-20.48,1.529-30.722l1.891,0.102
				c-0.131,2.449-0.24,4.89-0.351,7.34c4.351-2.12,8.64-4.37,12.97-6.52c-0.09-2.11-0.18-4.222-0.279-6.32l1.899-0.1
				C247.93,54.38,248.49,66.46,249.061,78.53z M241.15,77.35c1.979-0.01,3.949-0.01,5.93,0c-0.15-4.18-0.37-8.358-0.58-12.529
				c-4.71,2.41-9.529,4.641-14.2,7.131c-0.93,1.568-0.479,3.6-0.75,5.359c2,0.01,4,0.029,6.011,0.029c0-1.25,0.021-2.49,0.051-3.74
				c0.869,0.021,2.619,0.062,3.5,0.08C241.12,74.9,241.13,76.12,241.15,77.35z"/>
			<path fill="#FFFFFF" d="M248.49,27.2c-0.62,1.02-1.24,2.03-1.86,3.04c0.229,4.02,0.45,8.05,0.67,12.07l-1.899,0.1
				c-0.101-1.81-0.189-3.61-0.301-5.42c-3.92,1.95-7.789,4.01-11.738,5.91c-0.12,1.67-0.221,3.34-0.301,5.01l-1.891-0.102
				c0.301-6.14,0.59-12.28,0.83-18.43c-0.9-0.49-1.45-1.3-1.811-2.23c0.779-0.05,2.34-0.14,3.119-0.18c0-2.83,0-5.67,0-8.5
				c-0.648-0.03-1.93-0.1-2.578-0.13c2.8-3.01,5.75-5.87,8.56-8.87c2.979,2.86,5.78,5.9,8.76,8.76
				c-0.659,0.11-1.989,0.32-2.649,0.43c0.041,2.76,0.051,5.52,0.029,8.28C246.2,27.01,247.73,27.14,248.49,27.2z M243.54,25.98
				c0.021-2.53,0.021-5.05,0.01-7.58c-2.79,0-5.579,0.01-8.37,0.02c0,2.53,0.012,5.06,0.062,7.59
				C238.01,25.96,240.77,25.96,243.54,25.98z"/>
			<path fill="#EB6B6C" d="M228.96,21.76c0.931,3.29-2.72,3.82-4.91,4.95c-5.329,2.23-10.47,4.93-15.909,6.9
				c0.039-0.67,0.109-2.02,0.149-2.7c5.62-2.66,11.47-4.85,16.899-7.9c-5.689-2.5-11.381-5.02-16.989-7.68
				c0.01-0.68,0.04-2.06,0.05-2.74C215.189,15.56,221.98,18.88,228.96,21.76z"/>
			<path fill="#FFFFFF" d="M205.82,71.47c4.56,0,9.119,0,13.68,0c-0.061,0.58-0.18,1.74-0.24,2.32c-5.35,0.63-10.779,0-16.16,0.31
				c-0.35-8.81-0.08-17.63-0.158-26.449c5.52,0.041,11.039-0.109,16.56,0.101c-0.04,0.61-0.11,1.84-0.149,2.45
				c-4.471,0.16-8.961-0.25-13.41,0.199c-0.301,3.011-0.109,6.041-0.061,9.051c3.87-0.07,7.75-0.051,11.62-0.04
				c-0.06,0.608-0.19,1.819-0.25,2.42c-3.8,0.33-7.62,0.069-11.431,0.14C205.811,65.141,205.811,68.3,205.82,71.47z"/>
			<path fill="#FFFFFF" d="M196.029,62.59c2.109,3.34,1.131,8.62-2.609,10.4c-4.71,2.3-10.52,1.31-14.6-1.852
				c0.581-0.8,1.17-1.6,1.77-2.38c3.051,2.74,7.771,3.9,11.5,1.88c2.78-1.52,2.99-6.51-0.148-7.72c-3.15-1.09-6.75-0.81-9.66-2.601
				c-4.12-2.539-3.45-9.601,0.76-11.739c4.21-2.16,9.62-1.312,13.16,1.79c-2.36,3.279-5.23-1.12-8.25-0.45
				c-3.932-0.62-7.11,4-4.881,7.351C186.721,60.58,192.859,58.439,196.029,62.59z"/>
			<path fill="#FFFFFF" d="M173.87,47.65c-0.11,6.55,0.27,13.119-0.18,19.648c-1.07,6.79-10.39,8.971-15.27,4.83
				c-1.98-1.57-2.96-4.09-3-6.57c-0.15-5.949,0.03-11.898-0.08-17.84c0.72-0.029,2.17-0.09,2.9-0.119
				c0.13,6.209-0.2,12.439,0.15,18.641c0.21,3.279,3.45,5.77,6.67,5.359c3.17,0,5.93-2.819,5.87-5.979
				c0.2-5.99-0.01-11.99,0.09-17.99C171.73,47.641,173.16,47.641,173.87,47.65z"/>
			<path fill="#FFFFFF" d="M148.66,53.52c0.74,4.631,0.65,9.4,0.18,14.062c-1.36,6.78-11.34,8.93-15.75,3.851
				c-3.47-3.721-2.18-9.301-2.42-13.921c-0.36-3.979,1.77-8.159,5.65-9.52C141.07,46.17,147.26,48.359,148.66,53.52z M145.2,68.73
				c1.76-4.142,1.01-8.922,0.83-13.312c-0.17-4.54-6.08-6.96-9.65-4.45c-4.3,3.44-2.55,9.771-2.68,14.54
				C133.32,71.59,142.4,73.98,145.2,68.73z"/>
			<path fill="#FFFFFF" d="M123.97,47.59c0.07,8.87,0.32,17.76-0.13,26.62c-0.66-0.05-1.97-0.149-2.62-0.2
				c-0.05-4.01-0.04-8.02-0.03-12.029c-4.17-0.021-8.34-0.021-12.5,0.011c-0.11,4,0.29,8.04-0.21,12.04c-0.67,0.01-2,0.05-2.67,0.06
				c0-8.84-0.01-17.68,0.01-26.521c0.68,0.029,2.04,0.08,2.72,0.109c0.34,3.87,0.12,7.771,0.09,11.65
				c4.18,0.13,8.36,0.07,12.55,0.08c0-3.91,0.01-7.82,0-11.73C121.88,47.66,123.27,47.62,123.97,47.59z"/>
			<path fill="#FFFFFF" d="M101,47.67c-0.03,0.65-0.1,1.95-0.13,2.59c-2.46-0.02-4.92-0.05-7.38-0.14
				c-0.4,7.979-0.07,15.979-0.17,23.97c-0.7-0.02-2.08-0.06-2.77-0.08c-0.44-7.898-0.03-15.84-0.19-23.75
				c-2.56-0.029-5.11-0.04-7.66-0.068c0.02-0.642,0.07-1.91,0.1-2.551C88.86,47.67,94.93,47.62,101,47.67z"/>
			<path fill="#FFFFFF" d="M77.87,47.65c0.05,8.77-0.06,17.529,0.06,26.289c-0.73,0.029-2.21,0.08-2.94,0.109
				c0-4.06,0.1-8.119-0.12-12.17c-4.12,0.141-8.25,0.09-12.37,0.09c0.01,4.03,0,8.062,0,12.08c-0.72-0.01-2.16-0.029-2.88-0.04
				c0.03-8.84-0.05-17.68,0.04-26.52c0.68,0.069,2.03,0.188,2.7,0.26c0.34,3.86,0.09,7.74,0.11,11.61
				c4.17,0.068,8.34,0.039,12.52,0.06c0.01-3.938,0-7.87,0.03-11.8C75.74,47.63,77.16,47.65,77.87,47.65z"/>
			<path fill="#FFFFFF" d="M43.93,60.16c3.12-0.01,6.23-0.01,9.35,0c-0.17,3.56,0.54,7.72-1.98,10.66
				c-3.5,4.38-11.27,4.699-14.64,0.01c-2.37-2.86-1.78-6.83-1.97-10.271c0.15-3.42-0.43-7.438,2.23-10.119
				c3.83-4.569,11.44-3.721,15.1,0.681c-0.49,0.41-1.47,1.239-1.95,1.66c-3.14-3.521-9.91-4.062-11.84,0.96
				c-0.98,4.47-0.83,9.22-0.14,13.729c1.15,4.58,8.09,5.711,10.79,1.98c1.53-1.87,1.39-4.42,1.69-6.67
				c-2.21-0.12-4.42-0.131-6.63-0.15C43.94,62.01,43.94,60.77,43.93,60.16z"/>
			<path fill="#FFFFFF" d="M28.12,47.641c0.01,8.829,0,17.659,0,26.5c-0.7-0.131-2.1-0.391-2.81-0.521
				c-0.18-8.64,0.01-17.3-0.07-25.94C25.96,47.67,27.4,47.65,28.12,47.641z"/>
			<path fill="#F9F9F9" d="M6.89,71.47c4.58,0,9.17-0.01,13.75,0.011c-0.13,0.601-0.38,1.779-0.51,2.381
				C14.77,74.311,9.37,73.9,4,74.03V47.59c0.72,0.021,2.17,0.08,2.89,0.11C6.87,55.62,6.88,63.55,6.89,71.47z"/>
		</g>
	</g>
</g>
</svg>
